<svg width="960" height="900" viewBox="0 0 960 900" fill="none" xmlns="http://www.w3.org/2000/svg">
<rect width="960" height="900" fill="black"/>
<path d="M379.615 0C379.615 0 452.308 360 599.423 205.962C367.5 515.769 930 377.308 930 377.308C930 377.308 201.277 534.808 810.577 564.231C435 546.094 691.154 900 691.154 900C691.154 900 291.346 304.615 493.846 794.423C353.654 609.231 158.077 900 158.077 900C158.077 900 592.5 285.577 102.692 630C334.615 460.385 30 304.615 30 304.615C30 304.615 464.423 493.269 30 0C519.808 552.115 379.615 0 379.615 0Z" fill="#EEEEEE"/>
</svg>
